<?xml version="1.0" encoding="UTF-8"?><svg xmlns="http://www.w3.org/2000/svg" xmlns:xlink="http://www.w3.org/1999/xlink" width="375" zoomAndPan="magnify" viewBox="0 0 375 374.999991" height="374.999991" preserveAspectRatio="xMidYMid meet" version="1.0"><defs><clipPath id="clip-0"><path d="M 37.5 177.667969 L 343.5 177.667969 L 343.5 185.917969 L 37.5 185.917969 Z M 37.5 177.667969 " clip-rule="nonzero"/></clipPath><clipPath id="clip-1"><path d="M 183.484375 34.402344 L 191.734375 34.402344 L 191.734375 340.402344 L 183.484375 340.402344 Z M 183.484375 34.402344 " clip-rule="nonzero"/></clipPath></defs><g clip-path="url(#clip-0)"><path fill="rgb(100%, 79.998779%, 0%)" d="M 37.5 177.667969 L 343.5 177.667969 L 343.5 185.917969 L 37.5 185.917969 Z M 37.5 177.667969 " fill-opacity="1" fill-rule="nonzero"/></g><path fill="rgb(100%, 79.998779%, 0%)" d="M 187.40625 300.847656 C 156.34375 300.847656 127.09375 288.757812 105.144531 266.761719 C 83.148438 244.8125 71.058594 215.5625 71.058594 184.5 C 71.058594 153.4375 83.148438 124.1875 105.144531 102.238281 C 127.09375 80.242188 156.34375 68.152344 187.40625 68.152344 C 218.46875 68.152344 247.71875 80.242188 269.667969 102.238281 C 291.664062 124.234375 303.753906 153.4375 303.753906 184.5 C 303.753906 215.5625 291.664062 244.8125 269.667969 266.761719 C 247.71875 288.757812 218.46875 300.847656 187.40625 300.847656 Z M 187.40625 75.128906 C 158.203125 75.128906 130.722656 86.519531 110.074219 107.167969 C 89.425781 127.8125 78.035156 155.296875 78.035156 184.5 C 78.035156 213.703125 89.425781 241.1875 110.074219 261.832031 C 130.722656 282.480469 158.203125 293.871094 187.40625 293.871094 C 216.609375 293.871094 244.09375 282.480469 264.738281 261.832031 C 285.386719 241.1875 296.78125 213.703125 296.78125 184.5 C 296.78125 155.296875 285.386719 127.8125 264.738281 107.167969 C 244.09375 86.519531 216.609375 75.128906 187.40625 75.128906 Z M 187.40625 75.128906 " fill-opacity="1" fill-rule="nonzero"/><g clip-path="url(#clip-1)"><path fill="rgb(100%, 79.998779%, 0%)" d="M 183.484375 340.402344 L 183.484375 34.402344 L 191.734375 34.402344 L 191.734375 340.402344 Z M 183.484375 340.402344 " fill-opacity="1" fill-rule="nonzero"/></g></svg>